<mxfile host="app.diagrams.net" modified="2022-11-24T08:12:29.619Z" agent="5.0 (Macintosh; Intel Mac OS X 10_15_7) AppleWebKit/605.1.15 (KHTML, like Gecko) Version/16.1 Safari/605.1.15" etag="xqjRDL460Ltq1tUVy68J" version="20.5.3" type="github">
  <diagram id="BzABGsICOl5LQPSi61uW" name="Seite-1">
    <mxGraphModel dx="984" dy="483" grid="1" gridSize="10" guides="1" tooltips="1" connect="1" arrows="1" fold="1" page="1" pageScale="1" pageWidth="827" pageHeight="1169" math="0" shadow="0">
      <root>
        <mxCell id="0" />
        <mxCell id="1" parent="0" />
        <mxCell id="wxDS_wWBP0kyssS-9bpb-1" value="&lt;font style=&quot;font-size: 23px;&quot;&gt;0&lt;/font&gt;" style="ellipse;whiteSpace=wrap;html=1;aspect=fixed;fontSize=23;" vertex="1" parent="1">
          <mxGeometry y="120" width="80" height="80" as="geometry" />
        </mxCell>
        <mxCell id="wxDS_wWBP0kyssS-9bpb-2" value="1" style="ellipse;whiteSpace=wrap;html=1;aspect=fixed;fontSize=23;" vertex="1" parent="1">
          <mxGeometry x="170" width="80" height="80" as="geometry" />
        </mxCell>
        <mxCell id="wxDS_wWBP0kyssS-9bpb-3" value="1" style="ellipse;whiteSpace=wrap;html=1;aspect=fixed;fontSize=23;" vertex="1" parent="1">
          <mxGeometry x="170" y="120" width="80" height="80" as="geometry" />
        </mxCell>
        <mxCell id="wxDS_wWBP0kyssS-9bpb-4" value="1" style="ellipse;whiteSpace=wrap;html=1;aspect=fixed;fontSize=23;" vertex="1" parent="1">
          <mxGeometry x="170" y="240" width="80" height="80" as="geometry" />
        </mxCell>
        <mxCell id="wxDS_wWBP0kyssS-9bpb-5" value="2" style="ellipse;whiteSpace=wrap;html=1;aspect=fixed;fontSize=23;" vertex="1" parent="1">
          <mxGeometry x="360" width="80" height="80" as="geometry" />
        </mxCell>
        <mxCell id="wxDS_wWBP0kyssS-9bpb-6" value="2" style="ellipse;whiteSpace=wrap;html=1;aspect=fixed;fontSize=23;" vertex="1" parent="1">
          <mxGeometry x="360" y="120" width="80" height="80" as="geometry" />
        </mxCell>
        <mxCell id="wxDS_wWBP0kyssS-9bpb-7" value="2" style="ellipse;whiteSpace=wrap;html=1;aspect=fixed;fontSize=23;" vertex="1" parent="1">
          <mxGeometry x="360" y="240" width="80" height="80" as="geometry" />
        </mxCell>
        <mxCell id="wxDS_wWBP0kyssS-9bpb-8" value="3" style="ellipse;whiteSpace=wrap;html=1;aspect=fixed;fontSize=23;" vertex="1" parent="1">
          <mxGeometry x="550" width="80" height="80" as="geometry" />
        </mxCell>
        <mxCell id="wxDS_wWBP0kyssS-9bpb-25" value="3" style="edgeStyle=orthogonalEdgeStyle;rounded=0;orthogonalLoop=1;jettySize=auto;html=1;fontSize=23;" edge="1" parent="1" source="wxDS_wWBP0kyssS-9bpb-9">
          <mxGeometry relative="1" as="geometry">
            <mxPoint x="720" y="160" as="targetPoint" />
          </mxGeometry>
        </mxCell>
        <mxCell id="wxDS_wWBP0kyssS-9bpb-9" value="3" style="ellipse;whiteSpace=wrap;html=1;aspect=fixed;fontSize=23;" vertex="1" parent="1">
          <mxGeometry x="553" y="120" width="80" height="80" as="geometry" />
        </mxCell>
        <mxCell id="wxDS_wWBP0kyssS-9bpb-10" value="3" style="ellipse;whiteSpace=wrap;html=1;aspect=fixed;fontSize=23;" vertex="1" parent="1">
          <mxGeometry x="553" y="240" width="80" height="80" as="geometry" />
        </mxCell>
        <mxCell id="wxDS_wWBP0kyssS-9bpb-11" value="&lt;font style=&quot;font-size: 23px;&quot;&gt;n&lt;/font&gt;" style="ellipse;whiteSpace=wrap;html=1;aspect=fixed;fontSize=23;" vertex="1" parent="1">
          <mxGeometry x="720" y="120" width="80" height="80" as="geometry" />
        </mxCell>
        <mxCell id="wxDS_wWBP0kyssS-9bpb-14" value="1" style="endArrow=classic;html=1;rounded=0;fontSize=23;entryX=0;entryY=0.5;entryDx=0;entryDy=0;" edge="1" parent="1" target="wxDS_wWBP0kyssS-9bpb-2">
          <mxGeometry width="50" height="50" relative="1" as="geometry">
            <mxPoint x="40" y="120" as="sourcePoint" />
            <mxPoint x="90" y="70" as="targetPoint" />
          </mxGeometry>
        </mxCell>
        <mxCell id="wxDS_wWBP0kyssS-9bpb-15" value="3" style="endArrow=classic;html=1;rounded=0;fontSize=23;entryX=0;entryY=0.5;entryDx=0;entryDy=0;" edge="1" parent="1" target="wxDS_wWBP0kyssS-9bpb-3">
          <mxGeometry width="50" height="50" relative="1" as="geometry">
            <mxPoint x="80" y="160" as="sourcePoint" />
            <mxPoint x="130" y="110" as="targetPoint" />
          </mxGeometry>
        </mxCell>
        <mxCell id="wxDS_wWBP0kyssS-9bpb-16" value="4" style="endArrow=classic;html=1;rounded=0;fontSize=23;entryX=0;entryY=0.5;entryDx=0;entryDy=0;" edge="1" parent="1" target="wxDS_wWBP0kyssS-9bpb-4">
          <mxGeometry width="50" height="50" relative="1" as="geometry">
            <mxPoint x="40" y="200" as="sourcePoint" />
            <mxPoint x="90" y="150" as="targetPoint" />
          </mxGeometry>
        </mxCell>
        <mxCell id="wxDS_wWBP0kyssS-9bpb-17" value="2" style="endArrow=classic;html=1;rounded=0;fontSize=23;entryX=0;entryY=0.5;entryDx=0;entryDy=0;" edge="1" parent="1" target="wxDS_wWBP0kyssS-9bpb-5">
          <mxGeometry width="50" height="50" relative="1" as="geometry">
            <mxPoint x="250" y="40" as="sourcePoint" />
            <mxPoint x="300" y="-10" as="targetPoint" />
          </mxGeometry>
        </mxCell>
        <mxCell id="wxDS_wWBP0kyssS-9bpb-18" value="5" style="endArrow=classic;html=1;rounded=0;fontSize=23;entryX=0;entryY=0.5;entryDx=0;entryDy=0;" edge="1" parent="1" target="wxDS_wWBP0kyssS-9bpb-6">
          <mxGeometry width="50" height="50" relative="1" as="geometry">
            <mxPoint x="250" y="160" as="sourcePoint" />
            <mxPoint x="300" y="110" as="targetPoint" />
          </mxGeometry>
        </mxCell>
        <mxCell id="wxDS_wWBP0kyssS-9bpb-19" value="7" style="endArrow=classic;html=1;rounded=0;fontSize=23;" edge="1" parent="1" target="wxDS_wWBP0kyssS-9bpb-7">
          <mxGeometry width="50" height="50" relative="1" as="geometry">
            <mxPoint x="250" y="280" as="sourcePoint" />
            <mxPoint x="300" y="230" as="targetPoint" />
          </mxGeometry>
        </mxCell>
        <mxCell id="wxDS_wWBP0kyssS-9bpb-20" value="2" style="endArrow=classic;html=1;rounded=0;fontSize=23;entryX=0;entryY=0.5;entryDx=0;entryDy=0;" edge="1" parent="1" target="wxDS_wWBP0kyssS-9bpb-10">
          <mxGeometry width="50" height="50" relative="1" as="geometry">
            <mxPoint x="440" y="280" as="sourcePoint" />
            <mxPoint x="490" y="230" as="targetPoint" />
          </mxGeometry>
        </mxCell>
        <mxCell id="wxDS_wWBP0kyssS-9bpb-21" value="7" style="endArrow=classic;html=1;rounded=0;fontSize=23;entryX=0;entryY=0.5;entryDx=0;entryDy=0;" edge="1" parent="1" target="wxDS_wWBP0kyssS-9bpb-9">
          <mxGeometry width="50" height="50" relative="1" as="geometry">
            <mxPoint x="440" y="160" as="sourcePoint" />
            <mxPoint x="490" y="110" as="targetPoint" />
          </mxGeometry>
        </mxCell>
        <mxCell id="wxDS_wWBP0kyssS-9bpb-22" value="4" style="endArrow=classic;html=1;rounded=0;fontSize=23;entryX=0;entryY=0.5;entryDx=0;entryDy=0;" edge="1" parent="1" target="wxDS_wWBP0kyssS-9bpb-8">
          <mxGeometry width="50" height="50" relative="1" as="geometry">
            <mxPoint x="440" y="40" as="sourcePoint" />
            <mxPoint x="490" y="-10" as="targetPoint" />
          </mxGeometry>
        </mxCell>
        <mxCell id="wxDS_wWBP0kyssS-9bpb-23" value="3" style="endArrow=classic;html=1;rounded=0;fontSize=23;entryX=0.5;entryY=0;entryDx=0;entryDy=0;" edge="1" parent="1" target="wxDS_wWBP0kyssS-9bpb-11">
          <mxGeometry width="50" height="50" relative="1" as="geometry">
            <mxPoint x="630" y="40" as="sourcePoint" />
            <mxPoint x="680" y="-10" as="targetPoint" />
          </mxGeometry>
        </mxCell>
        <mxCell id="wxDS_wWBP0kyssS-9bpb-28" value="2" style="endArrow=classic;html=1;rounded=0;fontSize=23;entryX=0.5;entryY=1;entryDx=0;entryDy=0;" edge="1" parent="1" target="wxDS_wWBP0kyssS-9bpb-11">
          <mxGeometry width="50" height="50" relative="1" as="geometry">
            <mxPoint x="640" y="280" as="sourcePoint" />
            <mxPoint x="690" y="230" as="targetPoint" />
          </mxGeometry>
        </mxCell>
        <mxCell id="wxDS_wWBP0kyssS-9bpb-29" value="7" style="endArrow=classic;html=1;fontSize=23;curved=1;entryX=1;entryY=0.5;entryDx=0;entryDy=0;dashed=1;" edge="1" parent="1" target="wxDS_wWBP0kyssS-9bpb-2">
          <mxGeometry x="0.5676" y="1" width="50" height="50" relative="1" as="geometry">
            <mxPoint x="250" y="280" as="sourcePoint" />
            <mxPoint x="250" y="90" as="targetPoint" />
            <Array as="points">
              <mxPoint x="320" y="240" />
            </Array>
            <mxPoint as="offset" />
          </mxGeometry>
        </mxCell>
        <mxCell id="wxDS_wWBP0kyssS-9bpb-32" value="2" style="endArrow=classic;html=1;fontSize=23;curved=1;exitX=0.013;exitY=0.6;exitDx=0;exitDy=0;exitPerimeter=0;entryX=0;entryY=0.5;entryDx=0;entryDy=0;fillColor=none;dashed=1;" edge="1" parent="1" source="wxDS_wWBP0kyssS-9bpb-2" target="wxDS_wWBP0kyssS-9bpb-4">
          <mxGeometry x="0.5266" y="-5" width="50" height="50" relative="1" as="geometry">
            <mxPoint x="390" y="180" as="sourcePoint" />
            <mxPoint x="440" y="130" as="targetPoint" />
            <Array as="points">
              <mxPoint x="120" y="80" />
            </Array>
            <mxPoint as="offset" />
          </mxGeometry>
        </mxCell>
        <mxCell id="wxDS_wWBP0kyssS-9bpb-33" value="5" style="endArrow=classic;html=1;dashed=1;strokeColor=default;fontSize=23;rounded=0;" edge="1" parent="1">
          <mxGeometry width="50" height="50" relative="1" as="geometry">
            <mxPoint x="185" y="130" as="sourcePoint" />
            <mxPoint x="185" y="70" as="targetPoint" />
          </mxGeometry>
        </mxCell>
        <mxCell id="wxDS_wWBP0kyssS-9bpb-34" value="2" style="endArrow=classic;html=1;rounded=0;dashed=1;strokeColor=default;fontSize=23;exitX=0.692;exitY=0.948;exitDx=0;exitDy=0;exitPerimeter=0;entryX=0.7;entryY=0.034;entryDx=0;entryDy=0;entryPerimeter=0;" edge="1" parent="1">
          <mxGeometry width="50" height="50" relative="1" as="geometry">
            <mxPoint x="226.3599999999999" y="75.84000000000003" as="sourcePoint" />
            <mxPoint x="227" y="122.71999999999991" as="targetPoint" />
          </mxGeometry>
        </mxCell>
        <mxCell id="wxDS_wWBP0kyssS-9bpb-35" value="7" style="endArrow=classic;html=1;dashed=1;strokeColor=default;fontSize=23;rounded=0;exitX=0.224;exitY=0.052;exitDx=0;exitDy=0;exitPerimeter=0;entryX=0.224;entryY=0.933;entryDx=0;entryDy=0;entryPerimeter=0;" edge="1" parent="1" source="wxDS_wWBP0kyssS-9bpb-4" target="wxDS_wWBP0kyssS-9bpb-3">
          <mxGeometry x="-0.0242" width="50" height="50" relative="1" as="geometry">
            <mxPoint x="190" y="240" as="sourcePoint" />
            <mxPoint x="188" y="200" as="targetPoint" />
            <mxPoint as="offset" />
          </mxGeometry>
        </mxCell>
        <mxCell id="wxDS_wWBP0kyssS-9bpb-36" value="5" style="endArrow=classic;html=1;rounded=0;dashed=1;strokeColor=default;fontSize=23;exitX=0.692;exitY=0.948;exitDx=0;exitDy=0;exitPerimeter=0;entryX=0.748;entryY=0.076;entryDx=0;entryDy=0;entryPerimeter=0;" edge="1" parent="1" target="wxDS_wWBP0kyssS-9bpb-4">
          <mxGeometry x="-0.0381" width="50" height="50" relative="1" as="geometry">
            <mxPoint x="230.3599999999999" y="195.84000000000003" as="sourcePoint" />
            <mxPoint x="231" y="242.7199999999999" as="targetPoint" />
            <mxPoint as="offset" />
          </mxGeometry>
        </mxCell>
        <mxCell id="wxDS_wWBP0kyssS-9bpb-49" value="2" style="endArrow=classic;html=1;fontSize=23;curved=1;entryX=1;entryY=0.5;entryDx=0;entryDy=0;dashed=1;" edge="1" parent="1">
          <mxGeometry x="0.5676" y="1" width="50" height="50" relative="1" as="geometry">
            <mxPoint x="440" y="280" as="sourcePoint" />
            <mxPoint x="440.00000000000364" y="40.000000000000114" as="targetPoint" />
            <Array as="points">
              <mxPoint x="510" y="240" />
            </Array>
            <mxPoint as="offset" />
          </mxGeometry>
        </mxCell>
        <mxCell id="wxDS_wWBP0kyssS-9bpb-50" value="4" style="endArrow=classic;html=1;fontSize=23;curved=1;exitX=0.013;exitY=0.6;exitDx=0;exitDy=0;exitPerimeter=0;entryX=0;entryY=0.5;entryDx=0;entryDy=0;fillColor=none;dashed=1;" edge="1" parent="1">
          <mxGeometry x="0.5266" y="-5" width="50" height="50" relative="1" as="geometry">
            <mxPoint x="361.0400000000002" y="48" as="sourcePoint" />
            <mxPoint x="359.9999999999966" y="280" as="targetPoint" />
            <Array as="points">
              <mxPoint x="310" y="80" />
            </Array>
            <mxPoint as="offset" />
          </mxGeometry>
        </mxCell>
        <mxCell id="wxDS_wWBP0kyssS-9bpb-51" value="7" style="endArrow=classic;html=1;dashed=1;strokeColor=default;fontSize=23;rounded=0;" edge="1" parent="1">
          <mxGeometry width="50" height="50" relative="1" as="geometry">
            <mxPoint x="375" y="130" as="sourcePoint" />
            <mxPoint x="375" y="70" as="targetPoint" />
          </mxGeometry>
        </mxCell>
        <mxCell id="wxDS_wWBP0kyssS-9bpb-52" value="4" style="endArrow=classic;html=1;rounded=0;dashed=1;strokeColor=default;fontSize=23;exitX=0.692;exitY=0.948;exitDx=0;exitDy=0;exitPerimeter=0;entryX=0.7;entryY=0.034;entryDx=0;entryDy=0;entryPerimeter=0;" edge="1" parent="1">
          <mxGeometry width="50" height="50" relative="1" as="geometry">
            <mxPoint x="416.3599999999999" y="75.84000000000003" as="sourcePoint" />
            <mxPoint x="417" y="122.71999999999991" as="targetPoint" />
          </mxGeometry>
        </mxCell>
        <mxCell id="wxDS_wWBP0kyssS-9bpb-53" value="2" style="endArrow=classic;html=1;dashed=1;strokeColor=default;fontSize=23;rounded=0;exitX=0.224;exitY=0.052;exitDx=0;exitDy=0;exitPerimeter=0;entryX=0.224;entryY=0.933;entryDx=0;entryDy=0;entryPerimeter=0;" edge="1" parent="1">
          <mxGeometry x="-0.0242" width="50" height="50" relative="1" as="geometry">
            <mxPoint x="377.9200000000001" y="244.15999999999997" as="sourcePoint" />
            <mxPoint x="377.9200000000001" y="194.63999999999987" as="targetPoint" />
            <mxPoint as="offset" />
          </mxGeometry>
        </mxCell>
        <mxCell id="wxDS_wWBP0kyssS-9bpb-54" value="7" style="endArrow=classic;html=1;rounded=0;dashed=1;strokeColor=default;fontSize=23;exitX=0.692;exitY=0.948;exitDx=0;exitDy=0;exitPerimeter=0;entryX=0.748;entryY=0.076;entryDx=0;entryDy=0;entryPerimeter=0;" edge="1" parent="1">
          <mxGeometry x="-0.0381" width="50" height="50" relative="1" as="geometry">
            <mxPoint x="420.3599999999999" y="195.84000000000003" as="sourcePoint" />
            <mxPoint x="419.84000000000015" y="246.07999999999993" as="targetPoint" />
            <mxPoint as="offset" />
          </mxGeometry>
        </mxCell>
        <mxCell id="wxDS_wWBP0kyssS-9bpb-55" value="2" style="endArrow=classic;html=1;fontSize=23;curved=1;entryX=1;entryY=0.5;entryDx=0;entryDy=0;dashed=1;" edge="1" parent="1">
          <mxGeometry x="0.5676" y="1" width="50" height="50" relative="1" as="geometry">
            <mxPoint x="630" y="280" as="sourcePoint" />
            <mxPoint x="630.0000000000036" y="40.000000000000114" as="targetPoint" />
            <Array as="points">
              <mxPoint x="700" y="240" />
            </Array>
            <mxPoint as="offset" />
          </mxGeometry>
        </mxCell>
        <mxCell id="wxDS_wWBP0kyssS-9bpb-56" value="3" style="endArrow=classic;html=1;fontSize=23;curved=1;exitX=0.013;exitY=0.6;exitDx=0;exitDy=0;exitPerimeter=0;entryX=0;entryY=0.5;entryDx=0;entryDy=0;fillColor=none;dashed=1;" edge="1" parent="1">
          <mxGeometry x="0.5266" y="-5" width="50" height="50" relative="1" as="geometry">
            <mxPoint x="551.0400000000002" y="48" as="sourcePoint" />
            <mxPoint x="549.9999999999966" y="280" as="targetPoint" />
            <Array as="points">
              <mxPoint x="500" y="80" />
            </Array>
            <mxPoint as="offset" />
          </mxGeometry>
        </mxCell>
        <mxCell id="wxDS_wWBP0kyssS-9bpb-57" value="3" style="endArrow=classic;html=1;dashed=1;strokeColor=default;fontSize=23;rounded=0;" edge="1" parent="1">
          <mxGeometry width="50" height="50" relative="1" as="geometry">
            <mxPoint x="565" y="130" as="sourcePoint" />
            <mxPoint x="565" y="70" as="targetPoint" />
          </mxGeometry>
        </mxCell>
        <mxCell id="wxDS_wWBP0kyssS-9bpb-58" value="3" style="endArrow=classic;html=1;rounded=0;dashed=1;strokeColor=default;fontSize=23;exitX=0.692;exitY=0.948;exitDx=0;exitDy=0;exitPerimeter=0;entryX=0.7;entryY=0.034;entryDx=0;entryDy=0;entryPerimeter=0;" edge="1" parent="1">
          <mxGeometry width="50" height="50" relative="1" as="geometry">
            <mxPoint x="606.3599999999999" y="75.84000000000003" as="sourcePoint" />
            <mxPoint x="607" y="122.71999999999991" as="targetPoint" />
          </mxGeometry>
        </mxCell>
        <mxCell id="wxDS_wWBP0kyssS-9bpb-59" value="2" style="endArrow=classic;html=1;dashed=1;strokeColor=default;fontSize=23;rounded=0;exitX=0.224;exitY=0.052;exitDx=0;exitDy=0;exitPerimeter=0;entryX=0.224;entryY=0.933;entryDx=0;entryDy=0;entryPerimeter=0;" edge="1" parent="1">
          <mxGeometry x="-0.0242" width="50" height="50" relative="1" as="geometry">
            <mxPoint x="567.9200000000001" y="244.15999999999997" as="sourcePoint" />
            <mxPoint x="567.9200000000001" y="194.63999999999987" as="targetPoint" />
            <mxPoint as="offset" />
          </mxGeometry>
        </mxCell>
        <mxCell id="wxDS_wWBP0kyssS-9bpb-60" value="3" style="endArrow=classic;html=1;rounded=0;dashed=1;strokeColor=default;fontSize=23;exitX=0.692;exitY=0.948;exitDx=0;exitDy=0;exitPerimeter=0;entryX=0.748;entryY=0.076;entryDx=0;entryDy=0;entryPerimeter=0;" edge="1" parent="1">
          <mxGeometry x="-0.0381" width="50" height="50" relative="1" as="geometry">
            <mxPoint x="610.3599999999999" y="195.84000000000003" as="sourcePoint" />
            <mxPoint x="609.8400000000001" y="246.07999999999993" as="targetPoint" />
            <mxPoint as="offset" />
          </mxGeometry>
        </mxCell>
      </root>
    </mxGraphModel>
  </diagram>
</mxfile>
